<svg width="340" height="540" viewBox="0 0 340 540" fill="none" xmlns="http://www.w3.org/2000/svg">
<rect x="53" y="425" width="150" height="115" fill="#CFCECE"/>
<rect y="415" width="256" height="20" fill="#CFCECE"/>
<path fill-rule="evenodd" clip-rule="evenodd" d="M20.7781 415H67.6608L68.4979 413.122C93.3062 431.28 123.901 442 157 442C239.843 442 307 374.843 307 292C307 219.754 255.925 159.438 187.914 145.189L201.96 113.675C281.315 133.9 340 205.847 340 291.5C340 392.844 257.844 475 156.5 475C102.719 475 54.3412 451.863 20.7781 415Z" fill="#CFCECE"/>
<rect x="160.434" y="56.9827" width="66" height="139" transform="rotate(20 160.434 56.9827)" fill="#CFCECE"/>
<rect x="143.715" y="142.989" width="38" height="89" transform="rotate(20 143.715 142.989)" fill="#CFCECE"/>
<rect x="191.206" y="7.52444" width="42.7702" height="84.7378" transform="rotate(20 191.206 7.52444)" fill="#CFCECE"/>
<rect x="170.533" width="86" height="6" transform="rotate(20 170.533 0)" fill="#CFCECE"/>
<rect x="86" y="355" width="38" height="70" fill="#CFCECE"/>
<rect x="33" y="352" width="146" height="5" fill="#CFCECE"/>
</svg>
