<svg width="310" height="690" viewBox="0 0 310 690" fill="none" xmlns="http://www.w3.org/2000/svg">
<rect y="660" width="310" height="30" fill="#CFCECE"/>
<rect x="15" y="651" width="280" height="30" fill="#CFCECE"/>
<path d="M42.5 635L15 651H172V635H42.5Z" fill="#CFCECE"/>
<path d="M267.5 635L295 651H138V635H267.5Z" fill="#CFCECE"/>
<rect y="660" width="310" height="30" fill="#CFCECE"/>
<path d="M73 636.5L81.5 625L88 620.5H90L97.5 489.5V480L94 458V408L97.5 389.5L88.5 386L85.5 379C84.5 376.5 83.1 369.4 85.5 361C87.9 352.6 92.1666 343.5 94 340C95.1666 338.5 97.5 334.4 97.5 330C97.5 324.5 97 321 94 317.5C91.6 314.7 87.3333 309 85.5 306.5C84.5 303.667 82.8 296.9 84 292.5C85.2 288.1 86.5 282.333 87 280L82 273.5C81.1666 270.667 79.5 264.2 79.5 261L71.5 257C69.5 255.167 65.8 248.4 67 236C68.2 223.6 77.5 206.833 82 200L84 194.5L79.5 183.5L76 168L74.5 140V126L71.5 121L69.5 111L67 107.5L64.5 104V99V81.5L67 78V69.5L57 65.5L54 60V40V38H69.5L64.5 28.5C65.3333 25.8333 67 20 67 18V8.5L69.5 7L73 10L76 8.5L80 3.5L81.5 0H85.5L87 7L90 3.5L93 7V12L95.5 22L93 32.5L90 36.5V38H103.5L105 40V62L101.5 65.5L97.5 67.5H93V80L97.5 89.5C98.1667 92.5 99.5 99.6 99.5 104C99.5 108.4 98.1667 117.167 97.5 121L105 154L108.5 168V179L108.69 180H129.5L131.5 176.5L112.5 154V151L114.5 150L118 151.5L143.5 168.5L149 167.5L152 132.5L154.5 131H156.5L159 138L163.5 166V167L168 167.5L189 144.5L191.5 146L192 148.5L179 173.5L182.5 178L214 174L216 176L215 178L187.5 189.5L187 193L210 202.5V205.5L186.5 205V211L186 215.5L187.5 222.5L189.5 231L188.5 235L187.5 238L195.5 259.5L205.5 266C209.5 271.833 217.8 286.4 219 298L221 303L234.5 315L242.5 303H246V300L249 298L286.5 317.5L284.5 323V326.5L278 337L280.5 345.5L278 354L265 372.5L256 376L254 384.5L251.5 401L246 413.5L238.5 419L234.5 422.5L241 500.5L231.5 504.5L236 566.5L234.5 573H229L238.5 633.5L249.5 658.5L73 651V636.5Z" fill="#CFCECE"/>
</svg>
