<svg width="441" height="362" viewBox="0 0 441 362" fill="none" xmlns="http://www.w3.org/2000/svg">
<path d="M204.017 76.5C203.617 82.1 210.184 85.5 213.517 86.5H222.018V33L221.518 0L221.018 1C217.518 10 212.518 23.5 212.518 26.5C212.518 28.9 216.851 31.1667 219.018 32C209.818 30.8 205.184 39.1666 204.017 43.5C204.184 52.1666 204.417 70.9 204.017 76.5Z" fill="#CFCECE"/>
<path d="M239.018 77C239.418 82.6 232.851 86 229.518 87H221.018V33.5L221.518 0.5L222.018 1.5C225.518 10.5 230.518 24 230.518 27C230.518 29.4 226.184 31.6667 224.018 32.5C233.218 31.3 237.851 39.6666 239.018 44C238.851 52.6666 238.618 71.4 239.018 77Z" fill="#CFCECE"/>
<path d="M222.5 362H126C130.4 334.8 167.167 324 185 322H222.5V362Z" fill="#CFCECE"/>
<path d="M221 362H317.5C313.1 334.8 276.333 324 258.5 322H221V362Z" fill="#CFCECE"/>
<path d="M210.5 263H222.5V263.5V322H200V279C200 267 207 263.333 210.5 263Z" fill="#CFCECE"/>
<path d="M234 263H222V263.5V322H244.5V279C244.5 267 237.5 263.333 234 263Z" fill="#CFCECE"/>
<rect x="210" y="85" width="23" height="184" fill="#CFCECE"/>
<path d="M85 105C163.4 65 198.333 63.6667 206 68L216.5 58.5C222.5 56 228.5 49.8 204.5 45C174.5 39 83.5 97 73 98C62.5 99 54.5 86 53.5 84.5C52.7 83.3 51.8333 84 51.5 84.5V87.5C55.1 106.3 75.3333 107 85 105Z" fill="#CFCECE"/>
<path d="M360.867 105.435C282.467 65.4352 247.533 64.1019 239.867 68.4352L229.367 58.9352C223.367 56.4352 217.367 50.2352 241.367 45.4352C271.367 39.4352 362.367 97.4352 372.867 98.4352C383.367 99.4352 391.367 86.4352 392.367 84.9352C393.167 83.7352 394.033 84.4352 394.367 84.9352V87.9352C390.767 106.735 370.533 107.435 360.867 105.435Z" fill="#CFCECE"/>
<path d="M70 242H0C3.6 257.6 33.8333 269.5 48.5 273.5L70 274.5V242Z" fill="#CFCECE"/>
<path d="M70 242H140C136.4 257.6 106.167 269.5 91.5 273.5L70 274.5V242Z" fill="#CFCECE"/>
<line x1="74.3675" y1="100.384" x2="138.368" y2="242.384" stroke="#CFCECE" stroke-width="3"/>
<line x1="6.64518" y1="241.356" x2="73.6452" y2="100.356" stroke="#CFCECE" stroke-width="3"/>
<path d="M371 247H301C304.6 262.6 334.833 274.5 349.5 278.5L371 279.5V247Z" fill="#CFCECE"/>
<path d="M371 247H441C437.4 262.6 407.167 274.5 392.5 278.5L371 279.5V247Z" fill="#CFCECE"/>
<line x1="375.368" y1="105.384" x2="439.368" y2="247.384" stroke="#CFCECE" stroke-width="3"/>
<line x1="307.645" y1="246.356" x2="374.645" y2="105.356" stroke="#CFCECE" stroke-width="3"/>
</svg>
