<svg width="409" height="357" viewBox="0 0 409 357" fill="none" xmlns="http://www.w3.org/2000/svg">
<path fill-rule="evenodd" clip-rule="evenodd" d="M34.5 53L29.5 62L30 71L43 81.5L41.5 84.5L44.5 93L50.5 97.5L52 101L52.5 110L55 116.5L59 126.5L62.5 125.5L64 134.5L53.5 143.5L29 171.5V187L39.5 214.5L51.5 254L57.5 280.5L16 294L0 305.5L16 334L62.5 329H116.5L155.5 315.5L176 303.5L193 280.5L203.5 296.5L223.5 329L267 347.5L409 357V291.5L396.5 254L393.5 219L378.5 187L354.5 154L338 120L312.5 90.5L288.5 69.5H274.5L256 65.5L240.5 69.5H217.5L180 53L151 28.5L133 9.5L119 0H84.5L64 9.5L39.5 36L34.5 53ZM124.5 145.5L116 154L130.5 171.5L133 170L143.5 162L152.5 155L153.5 149.5L145.5 145.5L134.5 141L124.5 145.5ZM77 193L89.5 214.5L106 243L112 231V222.5L111 208.5L114.5 196.5L110 188H106L92 191.5L82.5 190L77 193Z" fill="#CFCECE"/>
</svg>
