<svg width="450" height="431" viewBox="0 0 450 431" fill="none" xmlns="http://www.w3.org/2000/svg">
<circle cx="225" cy="214" r="50" fill="#CFCECE"/>
<circle cx="180.5" cy="38.5" r="22.5" fill="#CFCECE"/>
<circle cx="383.5" cy="171.5" r="22.5" fill="#CFCECE"/>
<circle cx="72.5" cy="183.5" r="22.5" fill="#CFCECE"/>
<path d="M298.5 215.5C298.5 274.805 290.13 328.39 276.672 367.06C269.939 386.406 261.978 401.884 253.263 412.476C244.533 423.086 235.307 428.5 226 428.5C216.693 428.5 207.467 423.086 198.737 412.476C190.022 401.884 182.061 386.406 175.328 367.06C161.87 328.39 153.5 274.805 153.5 215.5C153.5 156.195 161.87 102.61 175.328 63.9402C182.061 44.5935 190.022 29.1156 198.737 18.5235C207.467 7.91424 216.693 2.5 226 2.5C235.307 2.5 244.533 7.91424 253.263 18.5235C261.978 29.1156 269.939 44.5935 276.672 63.9402C290.13 102.61 298.5 156.195 298.5 215.5Z" stroke="#CFCECE" stroke-width="5"/>
<path d="M270.153 146.321C319.032 180.546 357.953 218.95 381.397 253.292C393.124 270.471 400.9 286.52 404.177 300.434C407.455 314.351 406.176 325.839 400.246 334.308C394.316 342.777 383.958 347.908 369.759 349.588C355.563 351.268 337.823 349.45 317.669 344.305C277.38 334.021 227.98 310.582 179.101 276.356C130.221 242.13 91.3 203.726 67.8564 169.384C56.1292 152.206 48.3533 136.157 45.0763 122.243C41.7987 108.326 43.0774 96.8377 49.0076 88.3684C54.9378 79.8992 65.2957 74.7685 79.4943 73.0885C93.6904 71.4089 111.431 73.2269 131.584 78.3714C171.873 88.6555 221.273 112.095 270.153 146.321Z" stroke="#CFCECE" stroke-width="5"/>
<path d="M268.499 277.337C219.224 311.839 169.635 335.772 129.355 346.626C109.205 352.057 91.5206 354.177 77.4324 352.799C63.3327 351.42 53.1762 346.585 47.4805 338.45C41.7848 330.316 40.715 319.119 44.2416 305.397C47.7652 291.688 55.8058 275.795 67.8004 258.717C91.777 224.579 131.227 186.166 180.501 151.664C229.776 117.161 279.365 93.2284 319.645 82.3735C339.795 76.9433 357.48 74.8232 371.568 76.2011C385.668 77.5802 395.824 82.4153 401.52 90.5496C407.215 98.6838 408.285 109.882 404.759 123.603C401.235 137.312 393.194 153.205 381.2 170.283C357.223 204.421 317.773 242.834 268.499 277.337Z" stroke="#CFCECE" stroke-width="5"/>
</svg>
