<svg width="443" height="595" viewBox="0 0 443 595" fill="none" xmlns="http://www.w3.org/2000/svg">
<ellipse cx="204" cy="238" rx="204" ry="200" fill="#CFCECE"/>
<rect x="330.256" y="0.638885" width="15.7519" height="538.345" rx="7.87597" transform="rotate(29.7933 330.256 0.638885)" fill="#CFCECE"/>
<rect x="201" y="468" width="41" height="116" fill="#CFCECE"/>
<rect x="157" y="554" width="129" height="41" rx="10" fill="#CFCECE"/>
<path d="M35.4999 394C33 387 38.7001 375.9 51.5001 381.5C53.5001 382.5 53.5001 382.5 53.5001 382.5C91.7022 423.202 150.574 453.886 210 453.886C325.98 453.886 420 357.429 420 238.443C420 136.734 351.301 51.4862 258.912 28.8746C255.374 26.0733 252.526 21.9022 254 16.5C256.4 7.69999 271 9.16666 278 11V10.9445C373.442 40.2586 443 131.046 443 238.5C443 369.668 339.354 476 211.5 476C140.427 476 78.9659 447.217 36.5 395.5L35.4999 394Z" fill="#CFCECE"/>
</svg>
