<svg width="400" height="644" viewBox="0 0 400 644" fill="none" xmlns="http://www.w3.org/2000/svg">
<path d="M217.368 22.0807C194.546 21.4881 167.854 75.9913 168.741 124.598C168.947 139.403 173.62 169.428 180.437 207.138C137.445 251.64 87.5226 297.312 87.5226 357.237C86.8371 412.152 120.396 482.117 200.017 481.444C212.238 481.36 223.235 479.846 233.004 477.238C240.283 517.151 245.124 548.653 245.094 563.206C245.351 620.573 169.986 626.251 166.374 593.277C182.257 592.731 194.895 580.113 194.895 564.509C194.895 548.569 181.698 535.573 165.322 535.573C156.319 535.573 148.295 539.527 142.853 545.709C142.727 545.835 142.58 545.961 142.458 546.088C141.23 547.391 140.195 548.948 139.173 550.714C135.817 556.392 133.639 564.551 133.521 576.202C133.521 624.232 254.952 655.145 254.952 560.43C255.141 547.686 249.661 515.343 241.68 474.588C328.323 443.255 306.556 314.598 226.83 313.992C220.648 314.055 214.689 314.774 208.957 316.23C204.416 294.372 200.034 273.157 196.207 253.663C226.481 223.924 252.916 185.428 252.323 114.479C252.416 63.5293 235.443 22.6737 217.368 22.0807ZM222.755 71.369C233.084 70.3722 241.284 79.9616 241.284 101.071C242.121 137.325 216.725 168.987 186.484 200.829C183.591 183.388 181.694 169.256 181.488 160.874C182.346 104.238 205.539 73.0303 222.755 71.369ZM190.294 259.316C193.982 278.305 197.965 298.313 201.989 318.463C149.22 337.238 123.895 410.798 198.705 443.717C153.106 404.893 175.55 358.936 208.428 350.928C216.695 392.212 224.77 432.95 231.297 468.153C222.436 471.266 212.095 473.074 200.017 473.158C169.818 473.158 109.471 453.938 109.471 381.155C109.471 320.196 151.722 295.423 190.294 259.316ZM215.922 349.611C217.238 349.531 218.664 349.565 219.992 349.611C274.927 349.611 295.647 436.862 239.707 464.747C232.747 429.754 224.307 389.63 215.922 349.611Z" fill="#CFCECE" stroke="#CFCECE"/>
</svg>
