<svg width="438" height="552" viewBox="0 0 438 552" fill="none" xmlns="http://www.w3.org/2000/svg">
<path d="M235 440C230.2 482 124.667 531.833 72.5 551.5C101.3 498.3 102.5 408.333 99.5 370C105.5 371.5 120.6 373.6 133 370C145.4 366.4 158.833 355.5 164 350.5C126.4 310.9 105.333 315.333 99.5 322.5C103.5 350.5 72.8333 400.167 57 421.5C87 359.5 80 276 89 238.5C96.2 208.5 129 176.333 144.5 164L137.5 147.5H89C85 89.1 28.3333 85.8333 0.5 91.5C165.5 -70 321.5 18 375 85.5C428.5 153 437 241.5 437.5 287.5C437.9 324.3 420.667 384.833 412 410.5C424 336.1 411.333 306.5 403.5 301H400.5V328.5L394 347.5L391 350.5L381 355L368.5 377.5C359.3 415.9 369.333 431.167 375.5 434C382.833 438.833 395.7 450.9 388.5 460.5C379.643 472.309 351.904 472.981 331.486 473.476L330.5 473.5C310 474 275.5 460.5 261 445.5C249.4 433.5 256.167 419.167 261 413.5L275.5 392C282.333 378.667 291.1 350.7 271.5 345.5C251.9 340.3 243 362.667 241 374.5C241 378.833 239.8 398 235 440Z" fill="#CFCECE"/>
</svg>
