<svg width="433" height="319" viewBox="0 0 433 319" fill="none" xmlns="http://www.w3.org/2000/svg">
<path d="M6.99983 318.5C5.33316 318.667 1.79983 318.3 0.999827 315.5C0.199827 312.7 0.666494 307.667 0.999827 305.5L33 247.5C33.5968 246.903 34.8882 245.852 35.7262 245.926C35.1247 245.593 34.2056 244.883 34.5 244C34.9 242.8 34.6667 87.1667 34.5 9.5C35.1667 6.66667 38 0.900005 44 0.500005C50 0.100005 281.167 0.333338 396 0.500005C398.5 1 403.8 3.6 405 10C406.2 16.4 405.5 167.667 405 242.5C405 243.5 404.8 245.6 404 246C403.955 246.023 403.912 246.043 403.873 246.062L406.5 246.5L433 305V315C432.667 316.333 431.2 319 428 319C424.8 319 146 318.667 6.99983 318.5Z" fill="#CFCECE"/>
<rect x="49" y="17" width="341" height="214" fill="#C8C8C8"/>
</svg>
