<svg width="358" height="401" viewBox="0 0 358 401" fill="none" xmlns="http://www.w3.org/2000/svg">
<path d="M9.49989 373.5V231.5V227.5C-9.30011 213.9 4.33322 201.833 13.4999 197.5H74.4999C98.0999 208.3 87.3332 223.333 78.9999 229.5L79.9999 276.5H89.5L122.5 202.5L119 120C101.4 103.2 115.667 91.3333 125.5 87H195C200 93 209.667 115.167 201 122.5L198 198.5L224.5 262H232L239 258.5V178C219.4 156.8 235.5 145.5 246 142.5H299C322.2 154.1 311.333 171 303 178V181V260L306 261C351.5 281.5 361.5 322.5 356.5 355C352.5 381 336.167 396.167 328.5 400.5H31.9999C15.5999 394.5 10.1666 380 9.49989 373.5Z" fill="#C8C8C8"/>
<circle cx="30" cy="183" r="5" fill="#CFCECE"/>
<circle cx="58.5" cy="174.5" r="7.5" fill="#CFCECE"/>
<circle cx="262.5" cy="123.5" r="7.5" fill="#CFCECE"/>
<circle cx="137" cy="56" r="15" fill="#CFCECE"/>
<circle cx="179" cy="10" r="10" fill="#CFCECE"/>
<path d="M282 384.5L201 199L118 204C92.1665 256.833 38.4999 366.6 30.4999 383C22.4999 399.4 34 401 41.4999 401C109.833 400.167 250.684 400.5 268 400.5C285.5 400.5 284.5 390.833 282 384.5Z" fill="#CFCECE"/>
<path d="M201 122.5V199L199 201L189.5 213L118 204L118.5 121C101 104.5 113.5 87 125.5 87H195C213 93 210 114.833 201 122.5Z" fill="#CFCECE"/>
</svg>
