<svg width="463" height="399" viewBox="0 0 463 399" fill="none" xmlns="http://www.w3.org/2000/svg">
<path d="M201 28.5C195.167 33 182.6 43.1 179 47.5C174.5 53 148 64.5 128.5 62L123 63L109 76.5L112 79C119 73.6666 136.2 63.8 149 67C165 71 175.5 76 179 79C174 78.8333 159.3 80.2 140.5 87C133.667 87.6666 117.8 87.3 109 80.5L105 79L88.5 93.5L76 105.5L71.5 113.5C81.8333 105 105.7 88.7 118.5 91.5C134.5 95 129.5 91 144.5 100.5C137.167 101.833 120.1 106.3 110.5 113.5C100.9 120.7 80.5 119.5 71.5 118H68C64.6667 123.833 57.6 138.9 56 152.5C57.8333 152.333 62.5 150.2 66.5 143C71.5 134 93 123 100 125C104 124.333 112.8 123.1 116 123.5C119.2 123.9 103 136.667 94.5 143C89 148.833 74.2 160.3 59 159.5L54 162C52.3333 170.667 49.7 190.2 52.5 199L54 202C55.6666 188.5 66.4 160.6 96 157L109 154.5C103.333 156.833 91.3 164.6 88.5 177C85 192.5 62 202 59 202C56.6 202 54.6667 204.667 54 206L60.5 231L70 214C72.3333 207.333 80.5 193.2 94.5 190C93.8333 197.5 92.3 214.1 91.5 220.5C90.5 228.5 80.5 238.5 76 238.5H63.5C66.6666 250.833 75.3 277.5 84.5 285.5C93.7 293.5 87 277.5 82.5 268.5C80.8333 261.167 80 243.4 90 231C93.6666 227 102 220.4 106 226C104.167 230.5 100.9 241.9 102.5 251.5C104.5 263.5 104.5 269.5 99.5 276.5C95.5 282.1 91.5 288.5 90 291L124.5 322.5C123 318.333 118.4 308.5 112 302.5C104 295 110 260 116.5 255C123 250 117.5 260 119.5 261.5C121.5 263 133 288 131 301.5C129.4 312.3 127.667 321 127 324C137.167 329 158.9 339.9 164.5 343.5C171.5 348 159 331 148.5 325.5C138 320 134 292 138 282.5C142 273 143.5 294.5 148.5 296C153.5 297.5 171 314.5 172 329C170.667 332.333 168.2 339.9 169 343.5C170 348 208 356 215.5 356.5C223 357 202 345.5 198 344.5C194 343.5 180.5 333.5 178 325.5C175.5 317.5 175 312 172 305C169 298 174.5 306.5 180 309.5C185.5 312.5 200.5 319 208 329C215.5 339 219.5 347.5 220.5 353C221.3 357.4 227.833 358.5 231 358.5L239.5 356.5L255 353C253 350.333 249.6 343.7 252 338.5C255 332 285 314 287.5 309.5C290 305 295.5 292 296 296C296.5 300 291.5 315 292.5 319.5C293.5 324 284.5 343.5 275 343.5C265.5 343.5 258 353 261 353C264 353 302.5 344.5 302.5 341.5C302.5 338.5 294.5 321 300 309.5C305.5 298 317.5 290.5 318 286.5C318.5 282.5 325.5 277 325 272.5C324.5 268 327.5 273.5 327 278C326.5 282.5 330 289.5 328.5 294C327 298.5 329 313.5 314.5 327.5C300 341.5 311 341 314.5 338.5C318 336 346 317 343.5 314C341 311 332.5 306 333 298.5C333.5 291 341 261.5 340 259C339 256.5 337 251.5 338.5 251C340 250.5 342.5 247 345.5 255C348.5 263 354 265.5 354.5 269C355 272.5 360.5 289 352 301.5C343.5 314 363 300 364 296C364.8 292.8 371.333 285.333 374.5 282C369.5 279.333 359.2 271.9 358 263.5C356.5 253 356 232 360 224.5C364 217 364 214 364 223C366.333 224.167 371.7 229.2 374.5 240C378 253.5 380.5 264 377.5 271C375.1 276.6 380.5 274.333 383.5 272.5L398.5 241.5C390.167 237.5 371.6 221.5 364 189.5C360.5 184.833 356.5 177.6 368.5 186C383.5 196.5 394.5 197.5 395.5 213C396.5 228.5 399 242.5 402 233.5C405 224.5 412 208.5 410 202.5C408 196.5 380.5 190.5 377.5 178C374.5 165.5 364 157 360 154C356 151 349 144 354.5 145.5C360 147 375.5 150.5 381.5 154C387.5 157.5 400 170 402 178C404 186 411.5 201 410 192C408.5 183 415 176.5 410 163.5C405 150.5 405 159 398.5 155.5C392 152 367.5 145.5 358 132C357.167 130.5 354.2 127 349 125C342.5 122.5 333 121 341 121C349 121 366 115 379 123.5C389.799 130.561 402.322 142.796 405.967 147.884C404.821 144.138 403.032 136.586 402 132C401.333 126.667 398.9 115.5 394.5 113.5C389 111 363.5 118.5 358 113.5C352.5 108.5 317 93 319.5 97C316.667 96.3333 312.9 94.5 320.5 92.5C330 90 336.5 86.5 354.5 91C372.5 95.5 370 96.5 387.5 108C405 119.5 378.5 94 373.5 90C368.5 86 369 81.5 360 77.5C351 73.5 345.5 86.5 327 87C308.5 87.5 292 82 286.5 80.5C281 79 267.5 83.5 284 76.5C300.5 69.5 305.5 59.5 322.5 63.5C339.5 67.5 360 77.5 354.5 73C349 68.5 338 54.5 332.5 56C327 57.5 303.5 61.5 281 48C258.5 34.5 252.5 33 248.5 34.5C244.5 36 246 30.5 262 28.5C278 26.5 284 7.99998 324 33C327.833 36.3333 335.5 44.7 335.5 51.5L354.5 63.5C345.833 54.3333 327.6 30.4 324 8C323.667 6 324.6 3.2 331 8C337.167 11.3333 350.8 21 356 33C362.5 48 366 49 368 68.5C374.167 74.1667 386.7 86.4 387.5 90C388.3 93.6 392.5 99.1667 394.5 101.5C390.667 94.6667 382.6 79.6 381 74C379 67 381 50 380 49C379 48 376 28.5 380 28.5C384 28.5 382.5 39.5 386 40C389.5 40.5 400 55.5 400 59.5C400 63.5 409 72 405.5 83C402.7 91.8 400.667 102 400 106L407 121C405.167 113.167 404.8 94.6 418 83C417.167 81.1667 416 77.5 418 77.5C420.5 77.5 422.5 78 423 80.5C423.5 83 432 91 432.5 98.5C433 106 438.5 120.5 432.5 129.5C426.5 138.5 421 150 418 150C415.6 150 418 170.333 419.5 180.5C419.5 172.333 421 154.2 427 147C434.5 138 445.5 129.5 448 129.5C450 129.5 450.5 134.833 450.5 137.5C452.167 147.5 453.8 169.2 447 176C438.5 184.5 435 195 424 196C415.2 196.8 416.333 198.333 418 199L415 232C417.833 223.333 425.6 204.6 434 199C442.4 193.4 448.833 191.333 451 191C453.5 189 458.7 184.9 459.5 184.5C460.3 184.1 461.167 186.333 461.5 187.5C459.5 188.333 455.5 190.6 455.5 193C455.5 196 460.5 213 441 232C421.5 251 420 246 415 246.5C411 246.9 404.667 261.667 402 269L410 261.5C419.5 253.667 440.6 239.7 449 246.5C449.667 248.833 449.4 255.5 443 263.5C435 273.5 423 291 405 291.5C387 292 388 291.5 386.5 289C385.3 287 367 307.167 358 317.5C360.333 319.167 366.1 321.2 370.5 316C376 309.5 397 298.5 402 300C407 301.5 422.5 296 422 301.5C421.5 307 395 333.5 376.5 329.5C358 325.5 350 321.5 351 324.5C351.765 326.796 326.042 339.347 311.409 346.12C319.93 342.248 335.726 335.74 343.5 335C354 334 385 338.5 384 341.5C383 344.5 385 346.5 374.5 351.5C364 356.5 315 359 309.5 353C304 347 262.5 360.5 266.5 361C269.7 361.4 270.5 362.833 270.5 363.5C281.667 362.167 305.8 360.7 313 365.5C322 371.5 333 370.5 328.5 374.5C324 378.5 309 383.5 296 381.5C283 379.5 270 372.5 261 365.5C253.8 359.9 250 363.167 249 365.5L261 372.5L276.5 387C280 387.5 286.3 389 283.5 391C280.7 393 275 396.5 272.5 398C269.5 396.167 263.5 391.4 263.5 387C263.5 382.6 245.5 373.833 236.5 370C230.5 371.667 217.9 376 215.5 380C212.5 385 203.5 399.5 198 398C192.5 396.5 198.5 393.5 190.5 391C184.1 389 212.167 373.167 227 365.5L215.5 363.5C207.667 370.167 190.2 383.7 183 384.5C174 385.5 168.5 387.5 160.5 384.5C154.1 382.1 145.5 382.167 142 382.5C143.167 380.5 148 376.1 158 374.5C170.5 372.5 190 365.5 196 367C202 368.5 211 363 204 362.5C197 362 164 353 154.5 350C145 347 157 361.5 142 362.5C127 363.5 116.5 368.5 100.5 358.5C84.5 348.5 86 355.5 85.5 350.5C85 345.5 103.5 340 114 343.5C124.5 347 142 351.5 143 348C144 344.5 124 332.5 118 331.5C112 330.5 93.5 340.5 69 331.5C44.5 322.5 55.5 312 46 309.5C36.5 307 37.5 302.5 49 305C60.5 307.5 58.5 302 69 305C79.5 308 109.5 327 109 325.5C108.5 324 76 297.5 76 292.5C76 287.5 68.5 302.5 44.5 291C20.5 279.5 17.5 262 13.5 260.5C10.3 259.3 9.8333 256.333 9.99997 255L22.5 252.5C25 253 30.8 254.5 34 256.5C38 259 53 265.5 56.5 271.5C60 277.5 71 288 70 284.5C69 281 55.5 256.5 54 251.5C52.5 246.5 37 251 23.5 240C9.99997 229 1.99998 204 3.49998 200.5C4.99998 197 -5.00004 189 5.99996 194C17 199 19 202.5 25 205C31 207.5 43.5 219.5 43.5 225C43.5 229.4 46.8333 231.5 48.5 232L41.5 203.5C36.6667 201 25.9 193.6 21.5 184C16 172 12.5 175 13 161C13.5 147 3 133.5 8 137.5C13 141.5 22 152.5 23.5 152.5C25 152.5 28.5 154 33 162.5C37.5 171 39 182 39.5 188C40 194 42.5 161.5 43.5 157C44.5 152.5 23 139.5 25 123.5C27 107.5 32 96 35 89.5C35 82 35.5 79 39.5 87C43.5 95 49 94.5 48.5 107C48 119.5 50.5 119 47 135C43.5 151 45 154 49.5 139.5C54 125 57.5 115.5 62 110.5C66.5 105.5 50.5 96 54 80.5C57.5 65 65.5 48.5 70 45.5C74.5 42.5 77 33 78.5 38.5C80 44 78 35 81 47.5C84 60 85.7223 74 71.5 96C57.2777 118 71 97.5 76 93.5C81 89.5 95 78.5 95.5 75.5C96 72.5 89 59.5 99 41C109 22.5 114 26 118.5 20C123 14 128.5 2 128.5 9C128.5 16 131.5 39 123 45.5C114.5 52 95 73 103.5 71C112 69 114 64 118.5 60C123 56 124 45.5 133.5 41C143 36.5 148.5 31.5 163 33C174.6 34.2 193.167 30.5 201 28.5Z" fill="#CFCECE"/>
<path d="M202.232 23.1503C196.399 27.6503 183.832 37.7503 180.232 42.1503C175.732 47.6503 149.232 59.1503 129.732 56.6503L124.232 57.6503L110.232 71.1503L113.232 73.6503C120.232 68.317 137.432 58.4503 150.232 61.6503C166.232 65.6503 176.732 70.6503 180.232 73.6503C175.232 73.4837 160.532 74.8503 141.732 81.6503C134.899 82.317 119.032 81.9503 110.232 75.1503L106.232 73.6503L89.7322 88.1503L77.2322 100.15L72.7322 108.15C83.0656 99.6503 106.932 83.3503 119.732 86.1503C135.732 89.6503 130.732 85.6503 145.732 95.1503C138.399 96.4837 121.332 100.95 111.732 108.15C102.132 115.35 81.7322 114.15 72.7322 112.65H69.2322C65.8989 118.484 58.8322 133.55 57.2322 147.15C59.0656 146.984 63.7322 144.85 67.7322 137.65C72.7322 128.65 94.2322 117.65 101.232 119.65C105.232 118.984 114.032 117.75 117.232 118.15C120.432 118.55 104.232 131.317 95.7322 137.65C90.2322 143.484 75.4322 154.95 60.2322 154.15L55.2322 156.65C53.5656 165.317 50.9322 184.85 53.7322 193.65L55.2322 196.65C56.8989 183.15 67.6322 155.25 97.2322 151.65L110.232 149.15C104.566 151.484 92.5322 159.25 89.7322 171.65C86.2322 187.15 63.2322 196.65 60.2322 196.65C57.8322 196.65 55.8989 199.317 55.2322 200.65L61.7322 225.65L71.2322 208.65C73.5656 201.984 81.7322 187.85 95.7322 184.65C95.0656 192.15 93.5322 208.75 92.7322 215.15C91.7322 223.15 81.7322 233.15 77.2322 233.15H64.7322C67.8989 245.484 76.5322 272.15 85.7322 280.15C94.9322 288.15 88.2322 272.15 83.7322 263.15C82.0656 255.817 81.2322 238.05 91.2322 225.65C94.8989 221.65 103.232 215.05 107.232 220.65C105.399 225.15 102.132 236.55 103.732 246.15C105.732 258.15 105.732 264.15 100.732 271.15C96.7322 276.75 92.7322 283.15 91.2322 285.65L125.732 317.15C124.232 312.984 119.632 303.15 113.232 297.15C105.232 289.65 111.232 254.65 117.732 249.65C124.232 244.65 118.732 254.65 120.732 256.15C122.732 257.65 134.232 282.65 132.232 296.15C130.632 306.95 128.899 315.65 128.232 318.65C138.399 323.65 160.132 334.55 165.732 338.15C172.732 342.65 160.232 325.65 149.732 320.15C139.232 314.65 135.232 286.65 139.232 277.15C143.232 267.65 144.732 289.15 149.732 290.65C154.732 292.15 172.232 309.15 173.232 323.65C171.899 326.984 169.432 334.55 170.232 338.15C171.232 342.65 209.232 350.65 216.732 351.15C224.232 351.65 203.232 340.15 199.232 339.15C195.232 338.15 181.732 328.15 179.232 320.15C176.732 312.15 176.232 306.65 173.232 299.65C170.232 292.65 175.732 301.15 181.232 304.15C186.732 307.15 201.732 313.65 209.232 323.65C216.732 333.65 220.732 342.15 221.732 347.65C222.532 352.05 229.066 353.15 232.232 353.15L240.732 351.15L256.232 347.65C254.232 344.984 250.832 338.35 253.232 333.15C256.232 326.65 286.232 308.65 288.732 304.15C291.232 299.65 296.732 286.65 297.232 290.65C297.732 294.65 292.732 309.65 293.732 314.15C294.732 318.65 285.732 338.15 276.232 338.15C266.732 338.15 259.232 347.65 262.232 347.65C265.232 347.65 303.732 339.15 303.732 336.15C303.732 333.15 295.732 315.65 301.232 304.15C306.732 292.65 318.732 285.15 319.232 281.15C319.732 277.15 326.732 271.65 326.232 267.15C325.732 262.65 328.732 268.15 328.232 272.65C327.732 277.15 331.232 284.15 329.732 288.65C328.232 293.15 330.232 308.15 315.732 322.15C301.232 336.15 312.232 335.65 315.732 333.15C319.232 330.65 347.232 311.65 344.732 308.65C342.232 305.65 333.732 300.65 334.232 293.15C334.732 285.65 342.232 256.15 341.232 253.65C340.232 251.15 338.232 246.15 339.732 245.65C341.232 245.15 343.732 241.65 346.732 249.65C349.732 257.65 355.232 260.15 355.732 263.65C356.232 267.15 361.732 283.65 353.232 296.15C344.732 308.65 364.232 294.65 365.232 290.65C366.032 287.45 372.566 279.984 375.732 276.65C370.732 273.984 360.432 266.55 359.232 258.15C357.732 247.65 357.232 226.65 361.232 219.15C365.232 211.65 365.232 208.65 365.232 217.65C367.566 218.817 372.932 223.85 375.732 234.65C379.232 248.15 381.732 258.65 378.732 265.65C376.332 271.25 381.732 268.984 384.732 267.15L399.732 236.15C391.399 232.15 372.832 216.15 365.232 184.15C361.732 179.484 357.732 172.25 369.732 180.65C384.732 191.15 395.732 192.15 396.732 207.65C397.732 223.15 400.232 237.15 403.232 228.15C406.232 219.15 413.232 203.15 411.232 197.15C409.232 191.15 381.732 185.15 378.732 172.65C375.732 160.15 365.232 151.65 361.232 148.65C357.232 145.65 350.232 138.65 355.732 140.15C361.232 141.65 376.732 145.15 382.732 148.65C388.732 152.15 401.232 164.65 403.232 172.65C405.232 180.65 412.732 195.65 411.232 186.65C409.732 177.65 416.232 171.15 411.232 158.15C406.232 145.15 406.232 153.65 399.732 150.15C393.232 146.65 368.732 140.15 359.232 126.65C358.399 125.15 355.432 121.65 350.232 119.65C343.732 117.15 334.232 115.65 342.232 115.65C350.232 115.65 367.232 109.65 380.232 118.15C391.031 125.211 403.554 137.446 407.2 142.534C406.053 138.788 404.264 131.236 403.232 126.65C402.566 121.317 400.132 110.15 395.732 108.15C390.232 105.65 364.732 113.15 359.232 108.15C353.732 103.15 318.232 87.6503 320.732 91.6503C317.899 90.9837 314.132 89.1503 321.732 87.1503C331.232 84.6503 337.732 81.1503 355.732 85.6503C373.732 90.1503 371.232 91.1503 388.732 102.65C406.232 114.15 379.732 88.6503 374.732 84.6503C369.732 80.6503 370.232 76.1503 361.232 72.1503C352.232 68.1503 346.732 81.1503 328.232 81.6503C309.732 82.1503 293.232 76.6503 287.732 75.1503C282.232 73.6503 268.732 78.1503 285.232 71.1503C301.732 64.1503 306.732 54.1503 323.732 58.1503C340.732 62.1503 361.232 72.1503 355.732 67.6503C350.232 63.1503 339.232 49.1503 333.732 50.6503C328.232 52.1503 304.732 56.1503 282.232 42.6503C259.732 29.1503 253.732 27.6503 249.732 29.1503C245.732 30.6503 247.232 25.1503 263.232 23.1503C279.232 21.1503 285.232 2.65031 325.232 27.6503C329.066 30.9837 336.732 39.3503 336.732 46.1503L355.732 58.1503C347.066 48.9837 328.832 25.0503 325.232 2.65033C324.899 0.650328 325.832 -2.14967 332.232 2.65033C338.399 5.98365 352.032 15.6503 357.232 27.6503C363.732 42.6503 367.232 43.6503 369.232 63.1503C375.399 68.817 387.932 81.0503 388.732 84.6503C389.532 88.2503 393.732 93.817 395.732 96.1503C391.899 89.317 383.832 74.2503 382.232 68.6503C380.232 61.6503 382.232 44.6503 381.232 43.6503C380.232 42.6503 377.232 23.1503 381.232 23.1503C385.232 23.1503 383.732 34.1503 387.232 34.6503C390.732 35.1503 401.232 50.1503 401.232 54.1503C401.232 58.1503 410.232 66.6503 406.732 77.6503C403.932 86.4503 401.899 96.6503 401.232 100.65L408.232 115.65C406.399 107.817 406.032 89.2503 419.232 77.6503C418.399 75.817 417.232 72.1503 419.232 72.1503C421.732 72.1503 423.732 72.6503 424.232 75.1503C424.732 77.6503 433.232 85.6503 433.732 93.1503C434.232 100.65 439.732 115.15 433.732 124.15C427.732 133.15 422.232 144.65 419.232 144.65C416.832 144.65 419.232 164.984 420.732 175.15C420.732 166.984 422.232 148.85 428.232 141.65C435.732 132.65 446.732 124.15 449.232 124.15C451.232 124.15 451.732 129.484 451.732 132.15C453.399 142.15 455.032 163.85 448.232 170.65C439.732 179.15 436.232 189.65 425.232 190.65C416.432 191.45 417.566 192.984 419.232 193.65L416.232 226.65C419.066 217.984 426.832 199.25 435.232 193.65C443.632 188.05 450.066 185.984 452.232 185.65C454.732 183.65 459.932 179.55 460.732 179.15C461.532 178.75 462.399 180.984 462.732 182.15C460.732 182.984 456.732 185.25 456.732 187.65C456.732 190.65 461.732 207.65 442.232 226.65C422.732 245.65 421.232 240.65 416.232 241.15C412.232 241.55 405.899 256.317 403.232 263.65L411.232 256.15C420.732 248.317 441.832 234.35 450.232 241.15C450.899 243.484 450.632 250.15 444.232 258.15C436.232 268.15 424.232 285.65 406.232 286.15C388.232 286.65 389.232 286.15 387.732 283.65C386.532 281.65 368.232 301.817 359.232 312.15C361.566 313.817 367.332 315.85 371.732 310.65C377.232 304.15 398.232 293.15 403.232 294.65C408.232 296.15 423.732 290.65 423.232 296.15C422.732 301.65 396.232 328.15 377.732 324.15C359.232 320.15 351.232 316.15 352.232 319.15C352.998 321.447 327.274 333.997 312.642 340.77C321.162 336.898 336.958 330.391 344.732 329.65C355.232 328.65 386.232 333.15 385.232 336.15C384.232 339.15 386.232 341.15 375.732 346.15C365.232 351.15 316.232 353.65 310.732 347.65C305.232 341.65 263.732 355.15 267.732 355.65C270.932 356.05 271.732 357.484 271.732 358.15C282.899 356.817 307.032 355.35 314.232 360.15C323.232 366.15 334.232 365.15 329.732 369.15C325.232 373.15 310.232 378.15 297.232 376.15C284.232 374.15 271.232 367.15 262.232 360.15C255.032 354.55 251.232 357.817 250.232 360.15L262.232 367.15L277.732 381.65C281.232 382.15 287.532 383.65 284.732 385.65C281.932 387.65 276.232 391.15 273.732 392.65C270.732 390.817 264.732 386.05 264.732 381.65C264.732 377.25 246.732 368.484 237.732 364.65C231.732 366.317 219.132 370.65 216.732 374.65C213.732 379.65 204.732 394.15 199.232 392.65C193.732 391.15 199.732 388.15 191.732 385.65C185.332 383.65 213.399 367.817 228.232 360.15L216.732 358.15C208.899 364.817 191.432 378.35 184.232 379.15C175.232 380.15 169.732 382.15 161.732 379.15C155.332 376.75 146.732 376.817 143.232 377.15C144.399 375.15 149.232 370.75 159.232 369.15C171.732 367.15 191.232 360.15 197.232 361.65C203.232 363.15 212.232 357.65 205.232 357.15C198.232 356.65 165.232 347.65 155.732 344.65C146.232 341.65 158.232 356.15 143.232 357.15C128.232 358.15 117.732 363.15 101.732 353.15C85.7322 343.15 87.2322 350.15 86.7322 345.15C86.2322 340.15 104.732 334.65 115.232 338.15C125.732 341.65 143.232 346.15 144.232 342.65C145.232 339.15 125.232 327.15 119.232 326.15C113.232 325.15 94.7322 335.15 70.2322 326.15C45.7322 317.15 56.7322 306.65 47.2322 304.15C37.7322 301.65 38.7322 297.15 50.2322 299.65C61.7322 302.15 59.7322 296.65 70.2322 299.65C80.7322 302.65 110.732 321.65 110.232 320.15C109.732 318.65 77.2322 292.15 77.2322 287.15C77.2322 282.15 69.7322 297.15 45.7322 285.65C21.7322 274.15 18.7322 256.65 14.7322 255.15C11.5322 253.95 11.0655 250.984 11.2322 249.65L23.7322 247.15C26.2322 247.65 32.0322 249.15 35.2322 251.15C39.2322 253.65 54.2322 260.15 57.7322 266.15C61.2322 272.15 72.2322 282.65 71.2322 279.15C70.2322 275.65 56.7322 251.15 55.2322 246.15C53.7322 241.15 38.2322 245.65 24.7322 234.65C11.2322 223.65 3.23222 198.65 4.73222 195.15C6.23222 191.65 -3.7678 183.65 7.2322 188.65C18.2322 193.65 20.2322 197.15 26.2322 199.65C32.2322 202.15 44.7322 214.15 44.7322 219.65C44.7322 224.05 48.0656 226.15 49.7322 226.65L42.7322 198.15C37.8989 195.65 27.1322 188.25 22.7322 178.65C17.2322 166.65 13.7323 169.65 14.2322 155.65C14.7322 141.65 4.23224 128.15 9.23224 132.15C14.2322 136.15 23.2322 147.15 24.7322 147.15C26.2322 147.15 29.7322 148.65 34.2322 157.15C38.7322 165.65 40.2322 176.65 40.7322 182.65C41.2322 188.65 43.7323 156.15 44.7322 151.65C45.7322 147.15 24.2322 134.15 26.2322 118.15C28.2322 102.15 33.2322 90.6503 36.2322 84.1503C36.2322 76.6503 36.7322 73.6503 40.7322 81.6503C44.7322 89.6503 50.2322 89.1503 49.7322 101.65C49.2322 114.15 51.7322 113.65 48.2322 129.65C44.7322 145.65 46.2323 148.65 50.7322 134.15C55.2322 119.65 58.7323 110.15 63.2322 105.15C67.7322 100.15 51.7322 90.6503 55.2322 75.1503C58.7322 59.6503 66.7322 43.1503 71.2322 40.1503C75.7322 37.1503 78.2322 27.6503 79.7322 33.1503C81.2322 38.6503 79.2322 29.6503 82.2322 42.1503C85.2322 54.6503 86.9545 68.6503 72.7322 90.6503C58.51 112.65 72.2322 92.1503 77.2322 88.1503C82.2322 84.1503 96.2323 73.1503 96.7322 70.1503C97.2322 67.1503 90.2322 54.1503 100.232 35.6503C110.232 17.1503 115.232 20.6503 119.732 14.6503C124.232 8.65033 129.732 -3.34967 129.732 3.65033C129.732 10.6503 132.732 33.6503 124.232 40.1503C115.732 46.6503 96.2323 67.6503 104.732 65.6503C113.232 63.6503 115.232 58.6503 119.732 54.6503C124.232 50.6503 125.232 40.1503 134.732 35.6503C144.232 31.1503 149.732 26.1503 164.232 27.6503C175.832 28.8503 194.399 25.1503 202.232 23.1503Z" fill="#C8C8C8"/>
</svg>
