<svg width="396" height="624" viewBox="0 0 396 624" fill="none" xmlns="http://www.w3.org/2000/svg">
<g clip-path="url(#clip0)">
<path d="M383.98 611.002C285.65 611.002 191.348 571.927 121.818 502.372C52.288 432.818 13.2266 338.482 13.2266 240.118" stroke="#CFCECE" stroke-width="8"/>
<path d="M242.372 10.891C181.599 10.891 123.315 35.0416 80.3415 78.03C37.3682 121.018 13.2261 179.323 13.2261 240.118" stroke="#CFCECE" stroke-width="8"/>
<path d="M383.98 152.547C383.98 114.978 369.061 78.9467 342.504 52.3808C315.948 25.815 279.929 10.8905 242.373 10.8905" stroke="#CFCECE" stroke-width="8"/>
<path d="M296.441 240.118C319.657 240.118 341.923 230.892 358.34 214.469C374.757 198.047 383.979 175.773 383.979 152.548" stroke="#CFCECE" stroke-width="8"/>
<path d="M296.441 240.117C282.101 240.117 268.349 234.419 258.209 224.275C248.069 214.132 242.373 200.375 242.373 186.03" stroke="#CFCECE" stroke-width="8"/>
<path d="M275.844 152.548C271.448 152.548 267.096 153.414 263.035 155.097C258.974 156.78 255.284 159.246 252.176 162.355C249.068 165.464 246.603 169.155 244.921 173.217C243.239 177.28 242.373 181.634 242.373 186.031" stroke="#CFCECE" stroke-width="8"/>
<path d="M275.843 152.548C278.548 152.548 281.227 153.081 283.725 154.116C286.224 155.152 288.495 156.67 290.408 158.583C292.32 160.496 293.837 162.768 294.873 165.267C295.908 167.767 296.44 170.447 296.44 173.152" stroke="#CFCECE" stroke-width="8"/>
<path d="M283.567 186.03C285.258 186.03 286.932 185.697 288.494 185.05C290.056 184.403 291.475 183.454 292.67 182.259C293.865 181.063 294.814 179.643 295.461 178.081C296.107 176.518 296.44 174.844 296.44 173.153" stroke="#CFCECE" stroke-width="8"/>
<path d="M283.568 186.03C281.519 186.03 279.555 185.216 278.106 183.767C276.658 182.318 275.844 180.353 275.844 178.304" stroke="#CFCECE" stroke-width="8"/>
<path d="M283.568 178.303H275.844" stroke="#CFCECE" stroke-width="8"/>
<path d="M283.567 173.153V186.031" stroke="#CFCECE" stroke-width="8"/>
<path d="M280.993 178.304V173.153" stroke="#CFCECE" stroke-width="8"/>
<path d="M280.993 175.728H283.568" stroke="#CFCECE" stroke-width="8"/>
<path d="M275.843 173.152H296.441" stroke="#CFCECE" stroke-width="8"/>
<path d="M275.843 186.031V152.548" stroke="#CFCECE" stroke-width="8"/>
<path d="M296.441 186.03H242.373" stroke="#CFCECE" stroke-width="8"/>
<path d="M296.441 152.548V240.118" stroke="#CFCECE" stroke-width="8"/>
<path d="M242.373 152.548H383.981" stroke="#CFCECE" stroke-width="8"/>
<path d="M242.242 240.118V10.7604" stroke="#CFCECE" stroke-width="8"/>
<path d="M383.98 240.118L13.2261 240.118" stroke="#CFCECE" stroke-width="8"/>
<path d="M383.98 611.002H9" stroke="#CFCECE" stroke-width="8"/>
<path d="M383.639 10.8903L12.8853 10.8903" stroke="#CFCECE" stroke-width="8"/>
<path d="M12.8848 611.002L12.8848 10.5498" stroke="#CFCECE" stroke-width="8"/>
<path d="M383.98 611.002L383.98 10.5498" stroke="#CFCECE" stroke-width="8"/>
<path d="M280.993 173.153C279.627 173.153 278.317 173.696 277.352 174.661C276.386 175.627 275.844 176.938 275.844 178.304" stroke="#CFCECE" stroke-width="8"/>
<path d="M280.993 173.153C281.331 173.153 281.666 173.219 281.978 173.349C282.291 173.478 282.574 173.668 282.813 173.907C283.052 174.146 283.242 174.43 283.371 174.742C283.501 175.055 283.567 175.39 283.567 175.728" stroke="#CFCECE" stroke-width="8"/>
<path d="M280.989 178.299C281.327 178.299 281.661 178.232 281.974 178.103C282.286 177.973 282.57 177.784 282.809 177.544C283.048 177.305 283.238 177.021 283.367 176.709C283.496 176.397 283.563 176.062 283.563 175.724" stroke="#CFCECE" stroke-width="8"/>
</g>
<defs>
<clipPath id="clip0">
<rect width="623.888" height="395.47" fill="white" transform="translate(0 623.888) rotate(-90)"/>
</clipPath>
</defs>
</svg>
