<svg width="373" height="451" viewBox="0 0 373 451" fill="none" xmlns="http://www.w3.org/2000/svg">
<path fill-rule="evenodd" clip-rule="evenodd" d="M139.5 120.5C135.834 144 140.4 181.7 188 144.5C189.167 143.5 192.1 142.1 194.5 144.5C196.9 146.9 205.167 155.833 209 160C210 161.5 211.4 165.5 209 169.5C208.565 170.226 207.032 171.617 204.965 173.492C192.799 184.532 162.11 212.38 227.5 220.5C228.5 221 230.4 222.6 230 225C229.6 227.4 229.834 241.333 230 248C229 249.5 226.3 252.4 223.5 252C220 251.5 151.5 243 199.5 301.5C200 303.333 200.5 307.2 198.5 308C196.5 308.8 187.667 317.333 183.5 321.5C181.667 322.5 177.3 323.9 174.5 321.5C174.224 321.263 173.7 320.732 172.969 319.991C164.447 311.35 127.684 274.072 124 339C123.667 340.833 122.3 344.6 119.5 345C116 345.5 95.0003 345.5 92.0003 340.5C91.3336 338.833 90.4003 334.6 92.0003 331C94.0003 326.5 89.5002 264.5 41.5002 311.5C40.0002 312 36.6002 312.5 35.0002 310.5C34.5002 309.875 33.3127 308.688 31.8127 307.188C27.3127 302.688 20.0002 295.375 20.0002 292C20.0002 288.4 22.6668 285.5 24.0002 284.5C41.5002 270.333 62.3002 240.7 5.50016 235.5C4.00016 235.333 0.900158 234.1 0.500158 230.5C0.100158 226.9 0.333491 214 0.500158 208C0.500105 205.833 2.3 201.8 9.5 203C18.5 204.5 76 203.5 30 153.5C29.1667 152.667 28 150.6 30 149C30.5712 148.543 31.6904 147.434 33.143 145.994C38.0486 141.131 46.7565 132.5 51 132.5C55.4 132.5 57.5 134.833 58 136C72.8333 153.667 103.4 175 107 119C107.5 117 109.3 113 112.5 113H132C134.752 113.333 140.104 115.3 139.5 120.5ZM115 279C142.614 279 165 256.614 165 229C165 201.386 142.614 179 115 179C87.3858 179 65 201.386 65 229C65 256.614 87.3858 279 115 279Z" fill="#CFCECE"/>
<path fill-rule="evenodd" clip-rule="evenodd" d="M291.15 260.363C288.039 280.299 291.914 312.283 332.31 280.723C333.3 279.875 335.79 278.687 337.827 280.723C339.863 282.76 346.879 290.338 350.132 293.873C350.981 295.146 352.169 298.539 350.132 301.933C349.762 302.549 348.462 303.728 346.708 305.319C336.383 314.685 310.338 338.31 365.832 345.199C366.681 345.623 368.293 346.981 367.954 349.017C367.614 351.053 367.812 362.873 367.954 368.529C367.105 369.802 364.814 372.262 362.438 371.923C359.467 371.499 301.334 364.287 342.07 413.917C342.494 415.472 342.918 418.752 341.221 419.431C339.524 420.11 332.027 427.349 328.491 430.884C326.935 431.732 323.23 432.92 320.853 430.884C320.619 430.683 320.175 430.233 319.554 429.604C312.322 422.273 281.123 390.648 277.996 445.73C277.714 447.286 276.554 450.481 274.177 450.821C271.207 451.245 253.385 451.245 250.839 447.003C250.274 445.589 249.482 441.998 250.839 438.944C252.537 435.126 248.718 382.527 207.982 422.4C206.709 422.825 203.824 423.249 202.466 421.552C202.042 421.022 201.034 420.014 199.761 418.742C195.942 414.924 189.736 408.721 189.736 405.857C189.736 402.803 191.999 400.343 193.131 399.495C207.982 387.476 225.634 362.336 177.431 357.925C176.158 357.783 173.527 356.737 173.187 353.683C172.848 350.629 173.046 339.685 173.187 334.595C173.187 332.757 174.715 329.335 180.825 330.353C188.463 331.625 237.261 330.777 198.223 288.359C197.515 287.652 196.525 285.899 198.223 284.541C198.707 284.153 199.657 283.212 200.89 281.991C205.053 277.866 212.443 270.543 216.044 270.543C219.778 270.543 221.561 272.523 221.985 273.512C234.573 288.5 260.514 306.599 263.569 259.09C263.993 257.393 265.521 254 268.237 254H284.785C287.121 254.283 291.663 255.951 291.15 260.363ZM270.358 394.829C293.793 394.829 312.791 375.837 312.791 352.41C312.791 328.983 293.793 309.992 270.358 309.992C246.923 309.992 227.926 328.983 227.926 352.41C227.926 375.837 246.923 394.829 270.358 394.829Z" fill="#CFCECE"/>
<path fill-rule="evenodd" clip-rule="evenodd" d="M259.144 24.9952C261.659 42.4212 273.087 68.1052 298.681 31.4331C299.29 30.4718 301.061 28.8434 303.281 30.0198C305.501 31.1963 313.293 35.7203 316.911 37.8352C317.945 38.6792 319.805 41.2052 318.977 44.5575C318.826 45.166 318.044 46.483 316.99 48.2595C310.781 58.7164 295.119 85.0943 343.156 76.6232C343.972 76.7596 345.664 77.4787 345.903 79.2639C346.142 81.0492 349.336 90.8578 350.904 95.5389C350.522 96.8177 349.242 99.4568 347.174 99.7825C344.589 100.19 294.269 109.068 340.954 140.027C341.706 141.216 342.9 143.843 341.659 144.844C340.418 145.845 336.023 153.804 333.98 157.658C332.9 158.764 330.115 160.704 327.612 159.615C327.364 159.507 326.879 159.245 326.2 158.88C318.291 154.618 284.173 136.233 295.682 182.977C295.845 184.347 295.697 187.31 293.803 188.202C291.435 189.316 276.575 193.882 273.365 190.996C272.531 189.962 270.95 187.169 271.3 184.274C271.736 180.655 255.072 137.762 231.326 181.455C230.373 182.135 228.076 183.228 226.509 182.161C226.019 181.827 224.921 181.245 223.533 180.51C219.37 178.304 212.606 174.72 211.872 172.331C211.09 169.784 212.346 167.152 213.072 166.155C222.375 152.325 230.651 126.834 189.328 135.504C188.23 135.712 185.769 135.514 184.703 133.053C183.637 130.593 180.998 121.414 179.811 117.132C179.34 115.599 179.737 112.354 185.092 111.637C191.787 110.742 232.257 97.5328 188.836 72.1536C188.065 71.7451 186.79 70.5364 187.858 68.9693C188.162 68.5218 188.713 67.4935 189.428 66.1588C191.842 61.6516 196.127 53.6506 199.13 52.728C202.243 51.7714 204.237 52.9659 204.844 53.6827C219.181 62.9588 245.449 71.4087 235.821 30.9999C235.74 29.476 236.144 26.2542 238.408 25.5585L252.207 21.3189C254.226 20.9564 258.441 21.1844 259.144 24.9952ZM276.269 142.478C295.809 136.474 306.782 115.767 300.778 96.2266C294.774 76.6865 274.067 65.7132 254.527 71.7171C234.987 77.7209 224.014 98.4283 230.017 117.968C236.021 137.508 256.729 148.482 276.269 142.478Z" fill="#CFCECE"/>
</svg>
