<svg width="427" height="427" viewBox="0 0 427 427" fill="none" xmlns="http://www.w3.org/2000/svg">
<path fill-rule="evenodd" clip-rule="evenodd" d="M0.5 8.5V427H424L0.5 8.5ZM69 187V357.5H240.5L69 187Z" fill="#CFCECE"/>
<rect x="78.48" y="37.5924" width="52.9365" height="402.551" rx="25" transform="rotate(-45 78.48 37.5924)" fill="#CFCECE"/>
<path d="M400 284L379.5 264L335 293.5L364.5 323C375 326.667 398.3 334.4 407.5 336C416.7 337.6 416.667 330.667 415.5 327L400 284Z" fill="#CFCECE"/>
<path d="M243.536 83.5894C241.583 81.6368 241.583 78.4709 243.536 76.5183L308.294 11.7595C310.247 9.8069 313.413 9.8069 315.365 11.7595L397.834 94.2284C413.455 109.849 413.455 135.176 397.834 150.797L382.573 166.058C366.952 181.679 341.625 181.679 326.004 166.058L243.536 83.5894Z" fill="#CFCECE"/>
</svg>
