<svg width="500" height="362" viewBox="0 0 500 362" fill="none" xmlns="http://www.w3.org/2000/svg">
<path d="M220.384 196.425C215.175 208.426 206.262 206.789 202.457 204.471L191.473 212.747L190.821 192.812L176.072 158.975L111.612 111.65C113.855 108.218 116.038 97.1627 106.827 80.3993C97.6155 63.636 113.014 52.5193 121.865 49.0564C121.972 32.3024 137.824 30.5189 145.737 31.7214C157.734 18.4063 171.837 26.4838 174.858 28.8387C177.88 31.1935 174.743 32.3103 184.151 31.8718C193.558 31.4332 192.993 37.1443 193.218 36.0246C193.443 34.9049 201.059 34.6885 205.535 38.5007C209.115 41.5505 211.73 39.5522 212.59 38.1718C234.208 34.9457 239.348 47.046 241.472 50.9679C243.596 54.8897 235.293 70.1125 241.223 75.382C247.154 80.6516 252.865 81.2173 251.514 87.9355C250.163 94.6537 246.334 116.6 256.071 123.218C265.807 129.835 254.587 150.879 240.582 156.8C226.577 162.722 226.894 181.425 220.384 196.425Z" fill="#CFCECE"/>
<path fill-rule="evenodd" clip-rule="evenodd" d="M107.049 82.1915L102.005 87.0021C91.2947 83.2957 72 75 68.5 77.5C68 78 66.8686 79.2795 64.9696 80.9927C53.85 91.0246 18.9945 122.47 17.7323 141.122C16.8407 154.298 25.569 169.195 32.2873 180.662C36.7038 188.2 40.2517 194.256 39.6267 197.365C39.4082 198.451 39.06 200.016 38.6372 201.916C36.0111 213.718 30.5067 238.456 35.3264 241.933C40.922 245.971 117.483 288.157 118.603 288.382C118.808 288.423 119.499 288.798 120.52 289.353C125.051 291.815 136.095 297.817 140.212 293.891C145.256 289.08 197.282 227.312 201.894 207.27L202.457 204.471C201.039 203.798 198.45 201.802 199.438 199.204C199.59 198.806 200.053 197.644 200.744 195.911C205.678 183.536 222.222 142.042 219.767 141.548C219.957 137.703 218.86 130.415 212.945 132.022C208.924 133.115 206.988 135.832 205.41 138.047C204.087 139.905 203.015 141.41 201.176 141.306C197.145 141.078 186.395 139.499 185.954 133.003C185.837 131.287 185.923 129.571 186.007 127.921C186.239 123.326 186.445 119.243 182.162 117.096C179.348 115.686 175.563 116.395 170.733 117.299C165.574 118.265 159.221 119.455 151.586 118.522C141.614 117.303 139.396 110.485 137.736 105.385C136.936 102.926 136.265 100.866 134.918 100.026C133.709 99.2731 131.594 98.3378 129.118 97.2432C123.113 94.5876 114.987 90.9942 112.532 86.7887C109.76 82.0374 107.722 81.7442 107.049 82.1915ZM47.9294 182.142C60.4974 157.292 86.8888 106.563 91.9102 102.447C88.3328 96.0972 78.8692 85.0303 69.6345 91.5615C58.0911 99.7254 28.3782 134.525 31.0562 144.384C31.5906 146.351 32.0532 148.674 32.5573 151.206C34.5796 161.363 37.2688 174.87 47.9294 182.142Z" fill="#C8C8C8"/>
<path d="M267.524 205.32C268.773 210.697 276.925 211.676 280.845 211.493L287.222 217.435L335.381 215.467L408.875 188.886C414.22 181.612 425.653 165.116 428.617 157.324C431.581 149.532 429.117 142.28 427.515 139.628C434.693 129.422 428.647 127.236 424.727 127.418C428.059 110.847 418.433 112.368 413.204 115.2C421.913 97.379 412.366 95.2266 406.503 96.378C406.513 87.0602 397.556 84.8712 393.076 84.9413C390.758 73.2918 380.917 73.9539 376.286 75.7412C372.262 67.9424 362.368 69.6423 357.924 71.4671C344.413 52.9075 331.766 59.607 327.132 65.2767C309.844 60.8693 305.063 71.7129 304.833 77.6856C295.787 74.0032 292.476 78.3079 291.95 80.9205C276.615 73.1777 268.416 96.576 268.079 98.2556C267.741 99.9351 257.877 108.437 267.62 109.23C275.414 109.865 273.549 115.471 271.643 118.194C272.801 124.019 278.99 125.107 281.939 124.924C283.619 125.261 271.85 134.545 273.524 140.706C275.198 146.868 273.284 156.385 272.719 162.096C272.153 167.807 261.62 173.844 265.87 178.776C270.121 183.708 271.013 187.965 271.682 190.429C272.352 192.894 265.962 198.599 267.524 205.32Z" fill="#CFCECE"/>
<path fill-rule="evenodd" clip-rule="evenodd" d="M280.845 211.493C279.808 239.826 279.323 300.19 285.669 314.979C289.739 324.464 291.074 327.726 293.42 328.822C295.647 329.862 298.785 328.951 306.037 329.558C320.931 330.805 391.593 335.692 394.618 335.135C395.087 335.048 395.787 335.135 396.654 335.241C401.378 335.823 411.042 337.013 415.133 314.213C415.474 309.621 416.604 299.946 418.397 297.977C419.017 297.297 423.272 294.68 429.169 291.052C444.618 281.549 471.342 265.112 473.537 258.387C476.388 249.652 476.085 228.448 475.953 219.143C475.944 218.549 475.936 218.003 475.93 217.512C475.826 209.336 469.025 179.427 458.39 174.377L429.838 168.637L428.955 155.645C426.003 158.74 416.112 163.897 400.169 159.76C392.822 151.875 386 138.5 380.5 141C378.953 141.798 373.94 143.114 374.578 147.873C375.279 153.11 376.017 158.621 373.962 159.733C370.041 161.857 362.2 163.193 352.463 156.576C348.991 154.216 347.47 151.73 346.066 149.436C343.534 145.297 339 140 332 141C329 141.5 327 145.5 322.791 150.611C317.5 152 315.095 152.259 310.902 147.877C309.054 145.946 309.5 144 307.565 145.22C304.5 146.5 297.142 153.609 292.663 152.709C291.117 168.125 287.418 200.815 284.992 208.249C284.847 208.691 284.716 209.094 284.597 209.461L280.845 211.493ZM428.701 185.882C429.653 204.325 430.319 247.95 425.364 274.913C433.355 272.831 450.84 265.823 456.854 254.45C463.818 241.282 461.273 223.203 460.507 217.762C460.446 217.329 460.397 216.976 460.364 216.712C460.344 216.551 460.318 216.34 460.288 216.084C459.634 210.663 456.555 185.101 451.101 184.561C450.524 184.504 449.891 184.435 449.212 184.362C443.167 183.707 433.537 182.665 428.701 185.882Z" fill="#C8C8C8"/>
</svg>
