<svg width="443" height="613" viewBox="0 0 443 613" fill="none" xmlns="http://www.w3.org/2000/svg">
<rect x="119" y="337" width="204" height="236" fill="#C8C8C8"/>
<rect x="94" y="567" width="253" height="46" fill="#C8C8C8"/>
<rect x="94" y="302" width="253" height="46" fill="#C8C8C8"/>
<ellipse cx="221" cy="56.5" rx="51" ry="56.5" fill="#CFCECE"/>
<path d="M18.4715 173.286C8.63552 163.596 8.51691 147.768 18.2066 137.932L18.611 137.521C28.3007 127.685 44.1294 127.566 53.9654 137.256L126.776 208.984C136.612 218.674 136.731 234.502 127.041 244.338L126.637 244.749C116.947 254.585 101.118 254.703 91.2823 245.014L18.4715 173.286Z" fill="#CFCECE"/>
<path d="M166.671 135.374C176.698 125.883 192.521 126.318 202.013 136.345L204.123 138.575C213.614 148.602 213.18 164.426 203.152 173.917L128.924 244.177C118.896 253.668 103.073 253.234 93.5819 243.206L91.4714 240.976C81.98 230.949 82.4146 215.126 92.4421 205.634L166.671 135.374Z" fill="#CFCECE"/>
<path d="M244.885 174.513C235.049 164.823 234.93 148.995 244.62 139.159L245.949 137.81C255.639 127.974 271.468 127.855 281.304 137.545L354.114 209.273C363.95 218.962 364.069 234.791 354.379 244.627L353.05 245.976C343.361 255.812 327.532 255.931 317.696 246.241L244.885 174.513Z" fill="#CFCECE"/>
<path d="M388.992 137.864C398.652 127.998 414.48 127.83 424.346 137.49L424.757 137.893C434.623 147.552 434.791 163.38 425.132 173.246L353.629 246.278C343.97 256.144 328.141 256.312 318.275 246.652L317.864 246.249C307.998 236.59 307.83 220.762 317.49 210.896L388.992 137.864Z" fill="#CFCECE"/>
<rect x="151" y="153" width="140" height="149" fill="#CFCECE"/>
<path d="M193 125C179.4 125 170.333 131.667 167.5 135L169 147.5L199 181.5L262 162C269 154.333 281.1 137.8 273.5 133C265.9 128.2 255 125.667 250.5 125H193Z" fill="#CFCECE"/>
</svg>
