<svg width="487" height="478" viewBox="0 0 487 478" fill="none" xmlns="http://www.w3.org/2000/svg">
<rect y="457" width="487" height="21" fill="#CFCECE"/>
<rect x="14" y="438" width="458" height="19" fill="#CFCECE"/>
<rect x="29" y="418" width="426" height="20" fill="#CFCECE"/>
<path fill-rule="evenodd" clip-rule="evenodd" d="M46.5 420.5L53.5 168.5L39.5 166L32.5 158.5V150.5L37.5 146.5L32.5 144.5V92.5L12 91V70.5L242 0L475 72.5V90.5H453V144.5H446L447.5 149.5V159.5L443.5 165L434.5 168.5H432L441 422L46.5 420.5ZM160.5 418H107.5L96.5 169.5L104 167L110.5 160L114 152.5L110.5 147H153L150 149V160L156 167L169 169.5L160.5 418ZM260 147H229.5V157.5L223 165.5L212.5 169.5L224.5 418H272.5L278 167H275H264L260 160V147ZM339 147H369V160L373 165.5L384.5 167L387.5 169.5L380.5 418H334.5L324 167L334.5 165.5L339 160V149V147Z" fill="#CFCECE"/>
</svg>
