<svg width="432" height="500" viewBox="0 0 432 500" fill="none" xmlns="http://www.w3.org/2000/svg">
<path d="M254 0.499971C236 -1.90003 223.5 11.1666 219.5 18C216.3 7.59995 210.833 3.33331 208.5 2.5C190 -4.1956 171.5 8 165 10C158.5 12 152.5 5.5 142 8C131.5 10.5 130.5 21 111 21.5C91.5 22 82 30.5 76 49C70 67.5 77.5 54.5 55.5 73.5C33.5 92.5 39 110 39.5 114.5C40 119 27.5 117.5 32 129C36.5 140.5 35.5 152 32 163C28.5 174 15.5 182 12.5 197C9.5 212 21.5 232.5 15.5 236C10.7 238.8 3.49998 262.5 0.499968 274C-0.300032 309.2 4.49999 332.667 6.99999 340C4.99999 357.6 15.8333 373 21.5 378.5C22 398.5 31 415.5 37.5 415C44 414.5 73.5 439 71 447.5C69 454.3 74.5 458.667 77.5 460C104.5 465.5 108 481 117 483C124.2 484.6 133.333 482.333 137 481C146 496 185 504 203 495.5C217.4 488.7 220 469 219.5 460C223.5 489.2 234.167 498.167 239 499C275 499.8 292 488.667 296 483C309.333 484 341 479.2 361 452C386 418 399.5 418.5 403 407.5C405.8 398.7 406.5 383.833 406.5 377.5C425.5 358 425 338.5 425 337C425 335.5 428.5 339.5 431 329.5C433.5 319.5 425 320 427 308C429 296 429.5 287 428.5 278.5C427.5 270 419 248.5 419 242C419 235.5 424 219 419 205C414 191 399.5 182 402 177.5C404.5 173 404 157 399.5 148C395 139 397 108 377 90.5C357 73 358 64.5 356 58C354 51.5 342 35 332.5 33C323 31 299 19.5 295 15C291 10.5 276.5 3.49997 254 0.499971Z" fill="#CFCECE"/>
</svg>
