<svg width="431" height="451" viewBox="0 0 431 451" fill="none" xmlns="http://www.w3.org/2000/svg">
<path d="M80.5 451L5.5 427L0.5 409.5L5.5 396.5L32 389.5L56 382.5L54 371.5L41.5 354.5L32 338.5L24 321.5V304C25.6667 303.167 29 300.8 29 298V274C29 272.4 31 263.333 32 259L49.5 243L67.5 233.5L85 231L101 225.5H111L119 233.5L126 243H132.5L139 254.5V264.5C140.333 276 143 299.5 143 301.5C143 303.5 146 307 147.5 308.5L143 325L136.5 344L126 359L115 371.5V384C120 383.333 135.5 384.9 157.5 396.5C179.5 408.1 166.667 427.667 157.5 436L91.5 451H80.5Z" fill="#CFCECE"/>
<path d="M209 225.5L134 201.5L129 184L134 171L160.5 164L184.5 157L182.5 146L170 129L160.5 113L152.5 96V78.5C154.167 77.6667 157.5 75.3 157.5 72.5V48.5C157.5 46.9 159.5 37.8333 160.5 33.5L178 17.5L196 8L213.5 5.5L229.5 0H239.5L247.5 8L254.5 17.5H261L267.5 29V39C268.833 50.5 271.5 74 271.5 76C271.5 78 274.5 81.5 276 83L271.5 99.5L265 118.5L254.5 133.5L243.5 146V158.5C248.5 157.833 264 159.4 286 171C308 182.6 295.167 202.167 286 210.5L220 225.5H209Z" fill="#CFCECE"/>
<path d="M341 450.5L266 426.5L261 409L266 396L292.5 389L316.5 382L314.5 371L302 354L292.5 338L284.5 321V303.5C286.167 302.667 289.5 300.3 289.5 297.5V273.5C289.5 271.9 291.5 262.833 292.5 258.5L310 242.5L328 233L345.5 230.5L361.5 225H371.5L379.5 233L386.5 242.5H393L399.5 254V264C400.833 275.5 403.5 299 403.5 301C403.5 303 406.5 306.5 408 308L403.5 324.5L397 343.5L386.5 358.5L375.5 371V383.5C380.5 382.833 396 384.4 418 396C440 407.6 427.167 427.167 418 435.5L352 450.5H341Z" fill="#CFCECE"/>
<circle cx="79" cy="292" r="20" fill="#C8C8C8"/>
<circle cx="350" cy="292" r="20" fill="#C8C8C8"/>
<circle cx="214" cy="61" r="20" fill="#C8C8C8"/>
<path d="M79.5 293.5L76.5 132C81.8333 112.167 103.3 70.4 146.5 62H272C293 62.1667 337.7 76.4 348.5 132V293.5" stroke="#C8C8C8" stroke-width="8"/>
</svg>
