<svg width="409" height="487" viewBox="0 0 409 487" fill="none" xmlns="http://www.w3.org/2000/svg">
<path d="M128.513 152.317C36.5127 155.117 28.846 53.1502 36.5127 1.81684C36.5127 0.316833 33.1127 -1.38317 29.5127 1.81684C25.0127 5.81683 1.01272 34.8168 0.0127207 107.317C-0.787279 165.317 36.3461 201.484 55.0127 212.317C49.8127 218.317 36.8461 223.817 31.0127 225.817C23.8127 223.417 19.6794 228.15 18.5127 230.817C15.5127 236.817 15.6127 252.317 40.0127 266.317C64.4127 280.317 80.5127 275.817 85.5127 271.817L104.013 262.817L105.013 263.817C101.413 297.817 119.846 338.983 129.513 355.317L145.013 410.317C137.013 422.317 148.013 448.817 150.513 456.317C152.513 462.317 162.013 465.483 166.513 466.317C178.513 485.117 197.179 487.817 205.013 486.817V156.817L203.513 155.817C177.113 137.417 142.513 145.817 128.513 152.317Z" fill="#CFCECE"/>
<path d="M280.013 152.317C372.013 155.117 379.679 53.1502 372.013 1.81684C372.013 0.316833 375.413 -1.38317 379.013 1.81684C383.513 5.81683 407.513 34.8168 408.513 107.317C409.313 165.317 372.179 201.484 353.513 212.317C358.713 218.317 371.679 223.817 377.513 225.817C384.713 223.417 388.846 228.15 390.013 230.817C393.013 236.817 392.913 252.317 368.513 266.317C344.113 280.317 328.013 275.817 323.013 271.817L304.513 262.817L303.513 263.817C307.113 297.817 288.679 338.983 279.013 355.317L263.513 410.317C271.513 422.317 260.513 448.817 258.013 456.317C256.013 462.317 246.513 465.483 242.013 466.317C230.013 485.117 211.346 487.817 203.513 486.817V156.817L205.013 155.817C231.413 137.417 266.013 145.817 280.013 152.317Z" fill="#CFCECE"/>
</svg>
