<svg width="427" height="504" viewBox="0 0 427 504" fill="none" xmlns="http://www.w3.org/2000/svg">
<path d="M126.5 37.5L124 41L118.5 34L105 37.5L101 27.5H94V37.5L87.5 50.5V59.5L82 54L79 44.5L71.5 41L64.5 27.5L56 34V47L47.5 50.5H38.5L28 51.5L13 54V64.5L22 79L13 87H0.5L5 96L13 101.5L16.5 110L9 115L5 128L18.5 136.5L36 139L30 148V155H45L53 146.5L64.5 133.5L76 128L94 133.5L112.5 146.5L125 157V171L132 186.5L133.5 196L139.5 206L147 211L154.5 220.5L163.5 229L176 241L190.5 250L203 267.5L217 276.5L224 283.5H238H247L256 292L261 305L271.5 307L273.5 313.5H288.5L295 326L294 333L305 339.5L311.5 341.5L318 339.5L323 343.5L335.5 376L339 389.5L343 401L335 402L329.5 406L333.5 413.5L331.5 422L326 426.5L321 428.5V425.5L316.5 428.5H309.5L303.5 432.5L291 431L271.5 441.5L260.5 438L250 441.5L243.5 438L231.5 431L218.5 438L213 435L202 441.5V451.5L209 461.5L225 464L260.5 484.5L275.5 490.5L285.5 503.5C289 502.667 296.6 501 299 501C301.4 501 304 502.667 305 503.5L309.5 494.5L313.5 484.5L305 470.5L309.5 448.5L321 431L324.5 435L328.5 441.5H339L345.5 431L358.5 422V404C358.5 400.8 364.5 396.333 367.5 394.5L379 392.5V371.5L367.5 362.5L352 355L355.5 346.5L358.5 335.5L369.5 316H379L389.5 323L405.5 330L408 338L412 343.5L422.5 348.5L426.5 338V326L403 304L385 297L362.5 285.5L332.5 270L330.5 264L339 254L335.5 248L321 250L296 248L282 237L265.5 224.5L256 204.5L246.5 178L245 171C210.6 159.8 198.833 132.333 196.5 120L200.5 112.5L206.5 106.5C206.5 105.5 205.3 102 200.5 96C195.7 90 200.5 82.1667 203.5 79C205.5 78.8333 210.8 78.2 216 77C221.2 75.8 224.5 71.8333 225.5 70L230 64.5L236.5 67.5H241L243.5 54L241 50.5L246.5 47V41H238.5L241 31.5L246.5 27.5L238.5 24.5L206.5 21L200.5 15L196.5 10L192.5 7.5L196.5 4.5L192.5 0.5L182.5 4.5H167L160 7.5L157 12.5L151 15L145.5 10H135.5V15L133 19L135.5 24.5L126.5 21L122 27.5L126.5 31.5V37.5Z" fill="#CFCECE"/>
<path d="M55.5 298.5L44.5 293.5L43 298.5L42 308.5L50.5 317.5L53.5 334L49 343.5L55.5 347.5L50.5 363.5L49 380L58 392L70 390.5L77.5 380L94 383L96 360L99 341.5L97 332L100 324L103.5 310L96 292L90 284L81.5 282.5L73 292L55.5 298.5Z" fill="#CFCECE"/>
</svg>
