<svg width="418" height="669" viewBox="0 0 418 669" fill="none" xmlns="http://www.w3.org/2000/svg">
<rect x="176" width="65" height="669" fill="#CFCECE"/>
<rect y="150" width="418" height="65" fill="#CFCECE"/>
<path d="M69.5 216L60 207H38L89 260L110 271.5L139.5 289.5L163 299V319.5C163 329.1 174.5 350.667 178 354L196 287V212.5H163L151.5 223.5L142.5 237.5V251L147 260C135.5 256.167 112 247.3 110 242.5C108 237.7 73.1667 215.667 69.5 216Z" fill="#CFCECE"/>
<path d="M315.5 242C316.5 234 352.333 220.333 371.5 213.5H388L331 258L326.5 259C321.833 262.667 311.2 271.2 306 276C300.8 280.8 273.833 284.667 261 286L253 296.5V316.5L240.5 345.5V290L236 260.5L259.5 257L281 259L315.5 242Z" fill="#CFCECE"/>
<path d="M251.5 390.5L239 358L179 366L171 387.5L164.5 402.5L162 420L171 455.5L178 488H243.5C246.167 479.167 251.5 461.1 251.5 459.5C251.5 457.9 252.833 440.5 253.5 432V409L251.5 390.5Z" fill="#CFCECE"/>
</svg>
