<svg width="378" height="707" viewBox="0 0 378 707" fill="none" xmlns="http://www.w3.org/2000/svg">
<path fill-rule="evenodd" clip-rule="evenodd" d="M0 707C33.4716 652.126 60.8121 606.326 83 563.14V527H100.602C124.377 475.132 140.793 424.456 151.665 363H146V344H154.798C165.795 272.222 170 185.249 170 66L161 64.5V35L184.5 30.5L189 0L193.5 30.5L217 35V64.5L208 66C208 185.249 212.205 272.222 223.202 344H231V363H226.335C237.207 424.456 253.623 475.132 277.398 527H294V561.189C316.365 604.947 344.024 651.299 378 707H290C290 644.5 237 582.5 189.5 582.5C142 582.5 88 644.5 88 707H0ZM147 526.5C155.833 507.333 173.7 454.3 174.5 395.5H203.5C204.3 454.3 222.167 507.333 231 526.5H147Z" fill="#B3B3B3"/>
</svg>
